<?xml version="1.0" ?><svg id="Layer_3" style="enable-background:new 0 0 64 64;" version="1.1" viewBox="0 0 64 64" xml:space="preserve" xmlns="http://www.w3.org/2000/svg" xmlns:xlink="http://www.w3.org/1999/xlink"><g><path d="M62,1H2C1.447,1,1,1.448,1,2v44c0,0.552,0.447,1,1,1h11.82l-1.806,10.835c-0.062,0.371,0.09,0.746,0.393,0.969   c0.302,0.224,0.703,0.258,1.041,0.09L21,55.118l7.553,3.776C28.694,58.965,28.848,59,29,59c0.21,0,0.419-0.066,0.594-0.196   c0.303-0.223,0.454-0.598,0.393-0.969L28.18,47H49v6h-3c-0.553,0-1,0.448-1,1v3h-1c-0.553,0-1,0.448-1,1v4c0,0.552,0.447,1,1,1h16   c0.553,0,1-0.448,1-1v-4c0-0.552-0.447-1-1-1h-1v-3c0-0.552-0.447-1-1-1h-3v-6h7c0.553,0,1-0.448,1-1V2C63,1.448,62.553,1,62,1z    M11.569,35.667C11.569,35.667,11.568,35.667,11.569,35.667c-0.319,0.903-0.497,1.843-0.547,2.801C9.805,37.77,9,36.462,9,35V13   c0-2.206,1.794-4,4-4h38c2.206,0,4,1.794,4,4v22c0,0.714-0.194,1.394-0.547,2H48c-0.553,0-1,0.448-1,1v1H31c0-5.514-4.486-10-10-10   C16.77,29,12.979,31.679,11.569,35.667z M54,41h-4h-1v-2h6v2H54z M13.455,36.333C14.583,33.143,17.615,31,21,31   c4.411,0,8,3.589,8,8s-3.589,8-8,8s-8-3.589-8-8C13,38.085,13.153,37.188,13.455,36.333z M21.447,53.105   c-0.281-0.141-0.613-0.141-0.895,0l-6.243,3.122l1.454-8.725C17.289,48.446,19.079,49,21,49s3.711-0.554,5.237-1.497l1.454,8.725   L21.447,53.105z M28.981,45c0.878-1.165,1.516-2.52,1.818-4H47v1c0,0.552,0.447,1,1,1h1v2H28.981z M59,61H45v-2h1h12h1V61z M57,57   H47v-2h3h4h3V57z M51,53V43h2v10H51z M61,45h-6v-2h1c0.553,0,1-0.448,1-1v-4c0-0.337-0.177-0.62-0.433-0.802   C56.842,36.504,57,35.766,57,35V13c0-3.309-2.691-6-6-6H13c-3.309,0-6,2.691-6,6v22c0,2.614,1.717,4.895,4.154,5.688   c0.274,1.599,0.927,3.067,1.865,4.312H3V3h58V45z"/><path d="M21,45c3.309,0,6-2.691,6-6s-2.691-6-6-6s-6,2.691-6,6S17.691,45,21,45z M21,35c2.206,0,4,1.794,4,4s-1.794,4-4,4   s-4-1.794-4-4S18.794,35,21,35z"/><rect height="2" width="12" x="26" y="13"/><rect height="2" width="22" x="21" y="17"/><rect height="2" width="12" x="26" y="21"/></g></svg>